<?xml version="1.0" encoding="utf-8"?>
<!-- Generator: Adobe Illustrator 24.1.1, SVG Export Plug-In . SVG Version: 6.00 Build 0)  -->
<svg version="1.1" id="Слой_1" xmlns="http://www.w3.org/2000/svg" xmlns:xlink="http://www.w3.org/1999/xlink" x="0px" y="0px"
	 width="24px" height="24px" viewBox="0 0 24 24" style="enable-background:new 0 0 24 24;" xml:space="preserve">
<style type="text/css">
	.st0{fill:none;}
	.st1{opacity:0.39;}
</style>
<path class="st0" d="M0,0h24v24H0V0z"/>
<path class="st1" d="M12,1.8C6.4,1.8,1.8,6.4,1.8,12S6.4,22.2,12,22.2S22.2,17.6,22.2,12S17.6,1.8,12,1.8z M16.2,18.4H14v-11h-1
	c-1.8,0-2.8,0.9-2.8,2.3c0,1.5,0.7,2.3,2,3.2l1.1,0.8l-3.2,4.8H7.8l2.9-4.3C9,12.9,8.1,11.7,8.1,9.7c0-2.5,1.7-4.1,5-4.1h3.2
	L16.2,18.4L16.2,18.4L16.2,18.4z"/>
</svg>
